<svg width="26" height="24" viewBox="0 0 26 24" fill="none" xmlns="http://www.w3.org/2000/svg">
<path fill-rule="evenodd" clip-rule="evenodd" d="M9.53034 0.802922C9.82324 1.09582 9.82324 1.57069 9.53034 1.86358L2.81067 8.58325H23.1894L16.4697 1.86358C16.1768 1.57069 16.1768 1.09582 16.4697 0.802922C16.7626 0.510029 17.2374 0.510029 17.5303 0.802922L25.5303 8.80292C25.7077 8.98024 25.7846 9.23444 25.7354 9.48034L23.0688 22.8137C22.9987 23.1642 22.6909 23.4166 22.3333 23.4166H3.66668C3.30917 23.4166 3.00136 23.1642 2.93124 22.8137L0.264577 9.48034C0.215398 9.23444 0.292365 8.98024 0.469682 8.80292L8.46968 0.802922C8.76258 0.510029 9.23745 0.510029 9.53034 0.802922ZM24.0852 10.0833H1.91487L4.28153 21.9166H21.7185L24.0852 10.0833Z" fill="black"/>
</svg>
