<svg width="28" height="26" viewBox="0 0 28 26" fill="none" xmlns="http://www.w3.org/2000/svg">
<path fill-rule="evenodd" clip-rule="evenodd" d="M0.25 1C0.25 0.585786 0.585786 0.25 1 0.25H4.42105C4.79324 0.25 5.10913 0.522948 5.16312 0.891201L5.46009 2.91667H27C27.2421 2.91667 27.4694 3.03356 27.6102 3.23053C27.751 3.42751 27.788 3.68034 27.7096 3.90943L23.6044 15.9094C23.5006 16.2128 23.2154 16.4167 22.8947 16.4167H7.43941L7.73212 18.4131C7.77234 18.6874 8.0213 18.9167 8.34472 18.9167H21.5263C23.4336 18.9167 25.0132 20.4281 25.0132 22.3333C25.0132 24.2386 23.4336 25.75 21.5263 25.75C19.6191 25.75 18.0395 24.2386 18.0395 22.3333C18.0395 21.6196 18.2612 20.9611 18.6387 20.4167H13.4666C13.8441 20.9611 14.0658 21.6196 14.0658 22.3333C14.0658 24.2386 12.4862 25.75 10.5789 25.75C8.6717 25.75 7.09211 24.2386 7.09211 22.3333C7.09211 21.5827 7.33729 20.8932 7.7511 20.3332C6.9785 20.1111 6.37036 19.4653 6.24799 18.6307L3.773 1.75H1C0.585786 1.75 0.25 1.41421 0.25 1ZM10.5789 20.4167C9.46316 20.4167 8.59211 21.293 8.59211 22.3333C8.59211 23.3736 9.46316 24.25 10.5789 24.25C11.6947 24.25 12.5658 23.3736 12.5658 22.3333C12.5658 21.293 11.6947 20.4167 10.5789 20.4167ZM21.5263 20.4167C20.4105 20.4167 19.5395 21.293 19.5395 22.3333C19.5395 23.3736 20.4105 24.25 21.5263 24.25C22.6421 24.25 23.5132 23.3736 23.5132 22.3333C23.5132 21.293 22.6421 20.4167 21.5263 20.4167ZM7.21948 14.9167H22.3586L25.9507 4.41667H5.68001L7.21948 14.9167Z" fill="white"/>
</svg>
