<svg width="19" height="20" viewBox="0 0 19 20" fill="none" xmlns="http://www.w3.org/2000/svg">
<path fill-rule="evenodd" clip-rule="evenodd" d="M0 1.5C0 1.08579 0.335786 0.75 0.75 0.75H7.75C8.16421 0.75 8.5 1.08579 8.5 1.5V8.5C8.5 8.91421 8.16421 9.25 7.75 9.25H0.75C0.335786 9.25 0 8.91421 0 8.5V1.5ZM1.5 2.25V7.75H7V2.25H1.5ZM10 1.5C10 1.08579 10.3358 0.75 10.75 0.75H17.75C18.1642 0.75 18.5 1.08579 18.5 1.5V8.5C18.5 8.91421 18.1642 9.25 17.75 9.25H10.75C10.3358 9.25 10 8.91421 10 8.5V1.5ZM11.5 2.25V7.75H17V2.25H11.5ZM0 11.5C0 11.0858 0.335786 10.75 0.75 10.75H7.75C8.16421 10.75 8.5 11.0858 8.5 11.5V18.5C8.5 18.9142 8.16421 19.25 7.75 19.25H0.75C0.335786 19.25 0 18.9142 0 18.5V11.5ZM1.5 12.25V17.75H7V12.25H1.5ZM10 11.5C10 11.0858 10.3358 10.75 10.75 10.75H17.75C18.1642 10.75 18.5 11.0858 18.5 11.5V18.5C18.5 18.9142 18.1642 19.25 17.75 19.25H10.75C10.3358 19.25 10 18.9142 10 18.5V11.5ZM11.5 12.25V17.75H17V12.25H11.5Z" fill="white"/>
</svg>
