<svg width="13" height="14" viewBox="0 0 13 14" fill="none" xmlns="http://www.w3.org/2000/svg">
<path d="M12.5001 0.188182C12.3793 0.10469 12.2443 0.0473608 12.1026 0.0194698C11.961 -0.00842128 11.8156 -0.00632768 11.6748 0.025631C11.5339 0.0575896 11.4004 0.118787 11.2817 0.205727C11.1631 0.292668 11.0617 0.403647 10.9834 0.532326L4.83808 10.6196L1.84111 7.66864C1.73537 7.56453 1.61141 7.48361 1.47631 7.43051C1.34121 7.37742 1.19761 7.35317 1.05371 7.35918C0.763089 7.37129 0.488895 7.50586 0.291444 7.73327C0.0939932 7.96067 -0.0105399 8.2623 0.000840775 8.57178C0.0122214 8.88126 0.138584 9.17325 0.352129 9.38352L4.28716 13.2579C4.28716 13.2579 4.40012 13.3614 4.4524 13.3976C4.57321 13.4812 4.70831 13.5386 4.84996 13.5665C4.99161 13.5944 5.13704 13.5923 5.27793 13.5604C5.41883 13.5284 5.55243 13.4672 5.6711 13.3802C5.78976 13.2932 5.89117 13.1822 5.96952 13.0535L12.8233 1.8034C12.9017 1.67476 12.9555 1.53092 12.9817 1.38012C13.0079 1.22931 13.0059 1.07449 12.9759 0.924496C12.9459 0.7745 12.8885 0.63227 12.8068 0.505931C12.7252 0.379592 12.621 0.27162 12.5001 0.188182Z" fill="black"/>
</svg>
