<svg width="26" height="26" viewBox="0 0 26 26" fill="none" xmlns="http://www.w3.org/2000/svg">
<path fill-rule="evenodd" clip-rule="evenodd" d="M15.5145 1.79901C16.6664 0.647123 18.2287 0 19.8577 0C23.25 0 25.9999 2.74996 25.9999 6.1422C25.9999 7.77121 25.3528 9.33351 24.2009 10.4854L16.3673 18.319C12.8335 21.8528 8.4058 24.3597 3.55752 25.5718L2.04344 25.9503C0.839292 26.2514 -0.251427 25.1606 0.0496104 23.9565L0.428129 22.4424C1.6402 17.5941 4.14713 13.1664 7.68089 9.63266L15.5145 1.79901ZM17.3866 2.81782C17.1239 4.0835 17.7564 5.67454 19.0409 6.95905C20.3254 8.24355 21.9164 8.87608 23.1821 8.61334C23.71 7.90319 23.9999 7.03764 23.9999 6.1422C23.9999 3.85453 22.1454 2 19.8577 2C18.9623 2 18.0967 2.28994 17.3866 2.81782ZM21.331 10.5269C19.9343 10.2001 18.6235 9.37005 17.6267 8.37326C16.6299 7.37647 15.7999 6.06562 15.4731 4.66891L9.09511 11.0469C5.81766 14.3243 3.49257 18.4309 2.36841 22.9275L2.13374 23.8662L3.07245 23.6315C7.56906 22.5074 11.6756 20.1823 14.9531 16.9048L21.331 10.5269Z" fill="white"/>
</svg>
