<svg width="26" height="24" viewBox="0 0 26 24" fill="none" xmlns="http://www.w3.org/2000/svg">
<path fill-rule="evenodd" clip-rule="evenodd" d="M7.06091 2.08325C4.15325 2.08325 1.75 4.53559 1.75 7.61865C1.75 9.09535 2.31592 10.5063 3.31508 11.5425L13 21.5861L22.6849 11.5425C23.6841 10.5063 24.25 9.09535 24.25 7.61865C24.25 4.53559 21.8467 2.08325 18.9391 2.08325C17.5395 2.08325 16.1915 2.65956 15.1933 3.6948L13.5399 5.40941C13.3985 5.556 13.2036 5.63881 13 5.63881C12.7964 5.63881 12.6015 5.556 12.4601 5.40941L10.8067 3.6948C9.80848 2.65956 8.46047 2.08325 7.06091 2.08325ZM0.25 7.61865C0.25 3.75905 3.27387 0.583252 7.06091 0.583252C8.87627 0.583252 10.6115 1.33136 11.8865 2.6536L13 3.80833L14.1135 2.6536C15.3885 1.33136 17.1237 0.583252 18.9391 0.583252C22.7261 0.583252 25.75 3.75905 25.75 7.61865C25.75 9.47593 25.0388 11.2624 23.7647 12.5837L13.5399 23.1872C13.3985 23.3338 13.2036 23.4166 13 23.4166C12.7964 23.4166 12.6015 23.3338 12.4601 23.1872L2.23532 12.5837C0.961193 11.2624 0.25 9.47593 0.25 7.61865Z" fill="black"/>
</svg>
