<svg width="24" height="26" viewBox="0 0 24 26" fill="none" xmlns="http://www.w3.org/2000/svg">
<path fill-rule="evenodd" clip-rule="evenodd" d="M12 1.75C10.9415 1.75 10.0834 2.60812 10.0834 3.66667C10.0834 4.72521 10.9415 5.58333 12 5.58333C13.0586 5.58333 13.9167 4.72521 13.9167 3.66667C13.9167 2.60812 13.0586 1.75 12 1.75ZM8.66595 2.91667C9.00778 1.39047 10.3707 0.25 12 0.25C13.6294 0.25 14.9923 1.39047 15.3341 2.91667H22.6667C23.0809 2.91667 23.4167 3.25245 23.4167 3.66667C23.4167 4.08088 23.0809 4.41667 22.6667 4.41667H15.3341C14.9923 5.94286 13.6294 7.08333 12 7.08333C10.3707 7.08333 9.00778 5.94286 8.66595 4.41667L1.33337 4.41667C0.919161 4.41667 0.583374 4.08088 0.583374 3.66667C0.583374 3.25245 0.91916 2.91667 1.33337 2.91667L8.66595 2.91667ZM20 11.0833C18.9415 11.0833 18.0834 11.9415 18.0834 13C18.0834 14.0585 18.9415 14.9167 20 14.9167C21.0586 14.9167 21.9167 14.0585 21.9167 13C21.9167 11.9415 21.0586 11.0833 20 11.0833ZM16.666 12.25C17.0078 10.7238 18.3707 9.58333 20 9.58333C21.887 9.58333 23.4167 11.113 23.4167 13C23.4167 14.887 21.887 16.4167 20 16.4167C18.3707 16.4167 17.0078 15.2762 16.666 13.75H1.33337C0.919161 13.75 0.583374 13.4142 0.583374 13C0.583374 12.5858 0.919161 12.25 1.33337 12.25H16.666ZM4.00004 20.4167C2.9415 20.4167 2.08337 21.2748 2.08337 22.3333C2.08337 23.3919 2.9415 24.25 4.00004 24.25C5.05859 24.25 5.91671 23.3919 5.91671 22.3333C5.91671 21.2748 5.05859 20.4167 4.00004 20.4167ZM0.583375 22.3333C0.583375 20.4464 2.11307 18.9167 4.00004 18.9167C5.62936 18.9167 6.9923 20.0571 7.33413 21.5833H22.6667C23.0809 21.5833 23.4167 21.9191 23.4167 22.3333C23.4167 22.7475 23.0809 23.0833 22.6667 23.0833H7.33413C6.9923 24.6095 5.62936 25.75 4.00004 25.75C2.11307 25.75 0.583375 24.2203 0.583375 22.3333Z" fill="white"/>
</svg>
