<svg width="31" height="31" viewBox="0 0 31 31" fill="none" xmlns="http://www.w3.org/2000/svg">
<path fill-rule="evenodd" clip-rule="evenodd" d="M15.3333 0.5C16.1618 0.5 16.8333 1.17157 16.8333 2V13.8333H28.6667C29.4951 13.8333 30.1667 14.5049 30.1667 15.3333C30.1667 16.1618 29.4951 16.8333 28.6667 16.8333H16.8333V28.6667C16.8333 29.4951 16.1618 30.1667 15.3333 30.1667C14.5049 30.1667 13.8333 29.4951 13.8333 28.6667V16.8333H2C1.17157 16.8333 0.5 16.1618 0.5 15.3333C0.5 14.5049 1.17157 13.8333 2 13.8333H13.8333V2C13.8333 1.17157 14.5049 0.5 15.3333 0.5Z" fill="black"/>
</svg>
