<svg width="25" height="25" viewBox="0 0 25 25" fill="none" xmlns="http://www.w3.org/2000/svg">
<path fill-rule="evenodd" clip-rule="evenodd" d="M1.75 1.75L1.75 9.58333L22.9167 9.58333V1.75L1.75 1.75ZM1 0.250001L23.6667 0.25C23.8656 0.25 24.0563 0.329018 24.197 0.46967C24.3376 0.610322 24.4167 0.801088 24.4167 1V10.3333C24.4167 10.7475 24.0809 11.0833 23.6667 11.0833L1 11.0833C0.801088 11.0833 0.610323 11.0043 0.46967 10.8637C0.329018 10.723 0.25 10.5322 0.25 10.3333L0.25 1C0.25 0.585787 0.585786 0.250001 1 0.250001ZM1.75 15.0833L1.75 22.9167H22.9167V15.0833L1.75 15.0833ZM1 13.5833L23.6667 13.5833C23.8656 13.5833 24.0563 13.6623 24.197 13.803C24.3376 13.9437 24.4167 14.1344 24.4167 14.3333V23.6667C24.4167 24.0809 24.0809 24.4167 23.6667 24.4167H1C0.585788 24.4167 0.250001 24.0809 0.250001 23.6667L0.250001 14.3333C0.250001 13.9191 0.585787 13.5833 1 13.5833Z" fill="white"/>
</svg>
