<svg width="24" height="25" viewBox="0 0 24 25" fill="none" xmlns="http://www.w3.org/2000/svg">
<path fill-rule="evenodd" clip-rule="evenodd" d="M11.4703 0.46967C11.7632 0.176777 12.2381 0.176777 12.531 0.46967L17.8643 5.803C18.1572 6.0959 18.1572 6.57077 17.8643 6.86366C17.5714 7.15656 17.0965 7.15656 16.8037 6.86366L12.7507 2.81066L12.7506 17C12.7506 17.4142 12.4149 17.75 12.0006 17.75C11.5864 17.75 11.2506 17.4142 11.2506 17L11.2507 2.81066L7.19765 6.86366C6.90475 7.15655 6.42988 7.15655 6.13699 6.86366C5.84409 6.57077 5.84409 6.09589 6.13699 5.803L11.4703 0.46967ZM1.33398 10.9167C1.7482 10.9167 2.08398 11.2525 2.08398 11.6667V21C2.08398 22.0585 2.94211 22.9167 4.00065 22.9167H20.0007C21.0592 22.9167 21.9173 22.0585 21.9173 21V11.6667C21.9173 11.2525 22.2531 10.9167 22.6673 10.9167C23.0815 10.9167 23.4173 11.2525 23.4173 11.6667V21C23.4173 22.887 21.8876 24.4167 20.0007 24.4167H4.00065C2.11368 24.4167 0.583984 22.887 0.583984 21V11.6667C0.583984 11.2525 0.919771 10.9167 1.33398 10.9167Z" fill="black"/>
</svg>
