<svg width="14" height="14" viewBox="0 0 14 14" fill="none" xmlns="http://www.w3.org/2000/svg">
<path fill-rule="evenodd" clip-rule="evenodd" d="M7.00001 0.25C7.29412 0.25 7.56109 0.421902 7.68279 0.689648L9.16607 3.95287L13.0575 4.25221C13.3425 4.27413 13.5902 4.45606 13.6963 4.72139C13.8025 4.98671 13.7487 5.28931 13.5575 5.50172L10.8244 8.5385L11.7276 12.1514C11.7987 12.4356 11.6978 12.7351 11.4693 12.9184C11.2408 13.1016 10.9266 13.1351 10.6646 13.0042L7.00001 11.1719L3.33542 13.0042C3.07345 13.1351 2.75919 13.1016 2.53072 12.9184C2.30225 12.7351 2.20137 12.4356 2.27241 12.1514L3.17564 8.5385L0.442544 5.50172C0.251371 5.28931 0.197524 4.98671 0.303684 4.72139C0.409844 4.45606 0.65756 4.27413 0.942492 4.25221L4.83396 3.95287L6.31724 0.689648C6.43894 0.421902 6.70591 0.25 7.00001 0.25ZM7.00001 2.81246L6.01612 4.97702C5.903 5.22588 5.66343 5.39349 5.39087 5.41446L2.57686 5.63092L4.55749 7.83161C4.72435 8.01701 4.78812 8.27324 4.72762 8.51523L4.12312 10.9333L6.6646 9.66251C6.87575 9.55694 7.12428 9.55694 7.33542 9.66251L9.87691 10.9333L9.27241 8.51523C9.21191 8.27324 9.27568 8.01701 9.44254 7.83161L11.4232 5.63092L8.60916 5.41446C8.3366 5.39349 8.09703 5.22588 7.98391 4.97702L7.00001 2.81246Z" fill="#FFE600"/>
</svg>
