<svg width="26" height="26" viewBox="0 0 26 26" fill="none" xmlns="http://www.w3.org/2000/svg">
<path fill-rule="evenodd" clip-rule="evenodd" d="M13 1.75C6.7868 1.75 1.75 6.7868 1.75 13C1.75 15.806 2.77732 18.3721 4.47636 20.3426C5.16545 17.9779 7.34912 16.25 9.93636 16.25H16.0636C18.6509 16.25 20.8345 17.9779 21.5236 20.3426C23.2227 18.3721 24.25 15.806 24.25 13C24.25 6.7868 19.2132 1.75 13 1.75ZM20.2377 21.613C20.0726 19.452 18.2669 17.75 16.0636 17.75H9.93636C7.7331 17.75 5.92737 19.452 5.7623 21.613C7.7186 23.2586 10.2435 24.25 13 24.25C15.7565 24.25 18.2814 23.2586 20.2377 21.613ZM0.25 13C0.25 5.95837 5.95837 0.25 13 0.25C20.0416 0.25 25.75 5.95837 25.75 13C25.75 20.0416 20.0416 25.75 13 25.75C5.95837 25.75 0.25 20.0416 0.25 13ZM13 5.75C11.2051 5.75 9.75 7.20507 9.75 9C9.75 10.7949 11.2051 12.25 13 12.25C14.7949 12.25 16.25 10.7949 16.25 9C16.25 7.20507 14.7949 5.75 13 5.75ZM8.25 9C8.25 6.37665 10.3766 4.25 13 4.25C15.6234 4.25 17.75 6.37665 17.75 9C17.75 11.6234 15.6234 13.75 13 13.75C10.3766 13.75 8.25 11.6234 8.25 9Z" fill="black"/>
</svg>
